HIERARCHY
ROOT Hips
{
	OFFSET -3.958830 18.904000 13.208200
	CHANNELS 6 Xposition Yposition Zposition Zrotation Yrotation Xrotation 
	JOINT LHipJoint
	{
		OFFSET 0.000000 0.000000 0.000000
		CHANNELS 3 Zrotation Yrotation Xrotation
		JOINT LeftUpLeg
		{
			OFFSET 1.800000 -1.400000 0.085000
			CHANNELS 3 Zrotation Yrotation Xrotation
			JOINT LeftLeg
			{
				OFFSET 2.215000 -6.000000 0.000000
				CHANNELS 3 Zrotation Yrotation Xrotation
				JOINT LeftFoot
				{
					OFFSET 2.500000 -6.900000 0.000000
					CHANNELS 3 Zrotation Yrotation Xrotation
					JOINT LeftToeBase
					{
						OFFSET 0.200000 -0.500000 1.950000
						CHANNELS 3 Zrotation Yrotation Xrotation
						End Site
						{
							OFFSET 0.000000 0.000000 0.000000
						}
					}
				}
			}
		}
	}
	JOINT RHipJoint
	{
		OFFSET 0.000000 0.000000 0.000000
		CHANNELS 3 Zrotation Yrotation Xrotation
		JOINT RightUpLeg
		{
			OFFSET -1.800000 -1.400000 0.085000
			CHANNELS 3 Zrotation Yrotation Xrotation
			JOINT RightLeg
			{
				OFFSET -2.215000 -6.000000 0.000000
				CHANNELS 3 Zrotation Yrotation Xrotation
				JOINT RightFoot
				{
					OFFSET -2.500000 -6.900000 0.000000
					CHANNELS 3 Zrotation Yrotation Xrotation
					JOINT RightToeBase
					{
						OFFSET -0.200000 -0.500000 1.950000
						CHANNELS 3 Zrotation Yrotation Xrotation
						End Site
						{
							OFFSET 0.000000 0.000000 0.000000
						}
					}
				}
			}
		}
	}
	JOINT LowerBack
	{
		OFFSET 0.000000 0.000000 0.000000
		CHANNELS 3 Zrotation Yrotation Xrotation
		JOINT Spine
		{
			OFFSET -0.087000 1.940000 -0.288900
			CHANNELS 3 Zrotation Yrotation Xrotation
			JOINT Spine1
			{
				OFFSET 0.000000 1.950000 0.060000
				CHANNELS 3 Zrotation Yrotation Xrotation
				JOINT Neck
				{
					OFFSET 0.000000 0.000000 0.000000
					CHANNELS 3 Zrotation Yrotation Xrotation
					JOINT Neck1
					{
						OFFSET 0.000000 1.600000 0.340000
						CHANNELS 3 Zrotation Yrotation Xrotation
						JOINT Head
						{
							OFFSET 0.000000 1.667000 -0.240000
							CHANNELS 3 Zrotation Yrotation Xrotation
							End Site
							{
								OFFSET 0.000000 0.000000 0.000000
							}
						}
					}
				}
				JOINT LeftShoulder
				{
					OFFSET 0.000000 0.000000 0.000000
					CHANNELS 3 Zrotation Yrotation Xrotation
					JOINT LeftArm
					{
						OFFSET 2.700000 1.550000 -0.730000
						CHANNELS 3 Zrotation Yrotation Xrotation
						JOINT LeftForeArm
						{
							OFFSET 5.450000 0.000000 0.000000
							CHANNELS 3 Zrotation Yrotation Xrotation
							JOINT LeftHand
							{
								OFFSET 3.450000 0.000000 0.000000
								CHANNELS 3 Zrotation Yrotation Xrotation
								JOINT LeftHandIndex1
								{
									OFFSET 0.750000 0.000000 0.000000
									CHANNELS 3 Zrotation Yrotation Xrotation
									End Site
									{
										OFFSET 0.000000 0.000000 0.000000
									}
								}
							}
						}
					}
				}
				JOINT RightShoulder
				{
					OFFSET 0.000000 0.000000 0.000000
					CHANNELS 3 Zrotation Yrotation Xrotation
					JOINT RightArm
					{
						OFFSET -2.700000 1.550000 -0.730000
						CHANNELS 3 Zrotation Yrotation Xrotation
						JOINT RightForeArm
						{
							OFFSET -5.450000 0.000000 0.000000
							CHANNELS 3 Zrotation Yrotation Xrotation
							JOINT RightHand
							{
								OFFSET -3.450000 0.000000 0.000000
								CHANNELS 3 Zrotation Yrotation Xrotation
								JOINT RightHandIndex1
								{
									OFFSET -0.750000 0.000000 0.000000
									CHANNELS 3 Zrotation Yrotation Xrotation
									End Site
									{
										OFFSET 0.000000 0.000000 0.000000
									}
								}
							}
						}
					}
				}
			}
		}
	}
}
MOTION
Frames: 5
Frame Time: 0.016667
-0.888940 16.697640 -2.469850 -4.776592 -13.468979 -2.737857 -15.913559 10.191097 6.728928 29.929498 0.778901 -38.718787 -54.115228 26.882451 24.347897 1.775454 11.597262 0.541713 0.384100 0.099660 0.699470 18.186666 -6.789825 3.848941 -28.541176 8.989308 -32.747132 36.593981 -23.886741 38.296113 -1.665680 -9.343689 1.066004 -0.149100 -0.448380 0.183820 -2.745862 -3.852323 -10.501796 24.275203 -4.395928 37.103224 -0.502139 6.084866 -1.488044 7.970663 -2.699212 -13.579795 -6.420440 2.807303 45.065155 -18.785630 8.483590 -15.182770 -19.117972 -2.710582 5.424003 -49.573503 17.572138 -14.511214 -67.954422 -49.026053 25.208315 -3.236018 3.350614 0.612390 -0.250670 0.393420 -0.088260 2.791328 11.489104 8.477052 48.553470 -3.482078 -22.354605 -6.675293 73.207394 -7.787418 1.974332 -1.442936 0.078560 -0.109660 -0.205850 -0.332530 
-0.885300 16.653150 -2.475070 -4.682111 -13.094339 -3.073128 -15.913294 10.241780 6.643806 29.249965 0.632133 -38.817357 -53.119429 27.520244 25.707343 1.805005 11.679757 0.514524 0.386810 0.111080 0.695500 18.177945 -6.754255 3.923355 -29.484643 9.019121 -32.633957 37.896221 -24.259511 37.887381 -1.692011 -9.430817 1.038367 -0.146670 -0.451970 0.178710 -2.720745 -3.925511 -10.506034 24.350204 -4.413553 37.394742 -0.022831 6.019298 -1.407768 7.781155 -2.583137 -13.802635 -5.987364 2.995645 45.119880 -18.139090 8.484440 -14.661570 -18.877709 -3.383626 5.962106 -48.877882 18.788795 -14.854749 -68.349439 -47.263708 23.900509 -3.224400 3.359579 0.596050 -0.252410 0.389820 -0.089790 2.950294 12.235922 8.388382 47.597297 -2.779771 -22.486699 -10.818214 72.514551 -10.287707 1.961720 -1.381651 0.089790 -0.118970 -0.210930 -0.324970 
-0.880480 16.654550 -2.477030 -4.478405 -12.787148 -3.249087 -15.861343 10.280634 6.543940 28.305771 0.325832 -38.790733 -51.533383 27.790397 27.039979 1.811831 11.723145 0.500297 0.391230 0.114880 0.690600 18.202612 -6.851711 3.961209 -29.726786 9.077373 -32.451337 38.066120 -24.102704 37.610139 -1.684888 -9.401540 1.041725 -0.150090 -0.443730 0.187120 -2.811451 -3.774284 -10.461962 24.676039 -4.501297 36.937944 -0.273771 5.750793 -1.188211 7.512802 -2.558585 -13.968642 -5.906783 3.047494 45.657765 -17.273500 8.045540 -14.131900 -19.119974 -4.413942 6.365699 -48.240901 19.271456 -15.279007 -65.779949 -45.868087 21.523876 -3.220308 3.347789 0.587440 -0.252820 0.389890 -0.085850 3.713997 13.155884 8.407957 47.103227 -2.074224 -22.423815 -11.414718 71.630075 -10.633052 1.970871 -1.362924 0.103080 -0.121800 -0.210620 -0.312240 
-0.875010 16.702720 -2.467770 -4.253500 -12.608295 -3.415102 -15.781852 10.371715 6.408259 27.158470 0.077045 -38.179828 -49.603015 27.534623 27.875712 1.792471 11.639877 0.511037 0.404110 0.134380 0.682170 18.232496 -7.056087 3.950535 -29.378022 9.237037 -31.802166 37.449336 -23.278517 37.062782 -1.633654 -9.213822 1.096387 -0.147180 -0.451230 0.182060 -2.942534 -3.529172 -10.374555 25.017077 -4.443055 36.139862 -0.741836 5.592212 -0.973615 7.129935 -2.460812 -14.187248 -5.753332 3.095674 46.659192 -15.992950 7.600900 -13.628720 -19.226901 -5.414883 6.792613 -47.751825 19.756434 -15.704658 -63.094605 -43.826495 18.809202 -3.198758 3.336352 0.580290 -0.265310 0.392050 -0.080060 4.559652 13.923990 8.494157 47.216740 -1.480545 -22.305238 -9.690621 70.889581 -9.705957 1.997464 -1.382202 0.120650 -0.129220 -0.217790 -0.300700 
-0.859160 16.786220 -2.447740 -4.052839 -12.255487 -3.477170 -15.683794 10.481782 6.283356 25.938446 -0.325367 -37.540174 -47.451629 27.090239 28.755872 1.745814 11.547043 0.516506 0.406130 0.135630 0.674530 18.266942 -7.360326 3.868726 -28.458951 9.211305 -30.810455 35.725293 -21.970355 36.419569 -1.537347 -8.896042 1.175992 -0.150790 -0.453880 0.196450 -3.099603 -3.189500 -10.254059 25.474002 -4.389809 34.938985 -1.736393 5.455165 -0.895768 6.972560 -2.082888 -14.301133 -4.952890 2.870456 47.469397 -15.250520 7.463530 -13.295230 -19.498988 -6.235752 6.929890 -47.308914 19.414642 -15.735334 -59.666837 -41.956062 16.265450 -3.204685 3.322305 0.580450 -0.266080 0.395600 -0.084820 5.033313 14.326295 8.644987 48.480145 -0.657932 -21.962714 -6.720218 69.454588 -7.934362 2.027838 -1.416423 0.134070 -0.145170 -0.209610 -0.297160 
